<?xml version="1.0" encoding="utf-8"?>
<!-- Generator: Adobe Illustrator 19.2.0, SVG Export Plug-In . SVG Version: 6.00 Build 0)  -->
<svg version="1.1" id="Capa_1" xmlns:sketch="http://www.bohemiancoding.com/sketch/ns"
	 xmlns="http://www.w3.org/2000/svg" xmlns:xlink="http://www.w3.org/1999/xlink" x="0px" y="0px" viewBox="0 0 1480 500"
	 style="enable-background:new 0 0 1480 500;" xml:space="preserve">
<style type="text/css">
	.st0{fill:#3DC0E8;}
	.st1{fill:#FFFFFF;}
</style>
<g>
	<title>button_appstore_android</title>
	<desc>Created with Sketch.</desc>
	<path sketch:type="MSShapeGroup" class="st0" d="M97.9,12.7h1291c31.5,0,57,25.5,57,57v360.7c0,31.5-25.5,57-57,57H97.9
		c-31.5,0-57-25.5-57-57V69.6C41,38.2,66.5,12.7,97.9,12.7z"/>
	<path sketch:type="MSShapeGroup" class="st1" d="M117.1,177.9c-0.1,0.5-0.1,1.1-0.1,1.7v231.2c0,2.7,1.2,4.6,3.1,5.2l123.1-117.3
		L117.1,177.9L117.1,177.9z M121.6,173c1.9-0.4,4.3,0,6.7,1.3c5.7,3.1,102.4,56.7,102.4,56.7l52.8,29.2L248,294.1L121.6,173
		L121.6,173z M277.2,331.3L251,345.8l-20.3,11.3c0,0-69.4,38.5-95.4,52.8l112.6-106.7L277.2,331.3L277.2,331.3z M283.4,327.9
		l0.4-0.2c0,0,45-25,51-28.3c6-3.3,5.4-7.9,0.4-10.5c-3.9-2-33-18.2-45.6-25.2l-36.8,34.9L283.4,327.9L283.4,327.9z"/>
	<path class="st1" d="M1017.5,340.4l-9.6,9.1c-2.2,1.2-4.4,2.7-6.6,3.7c-6.7,3.1-13.5,3.8-19.5,3.8c-6.4,0-16.5-0.4-26.8-7.9
		c-14.3-10.1-20.5-27.5-20.5-42.7c0-31.4,25.4-46.8,46.1-46.8c7.2,0,14.7,1.8,20.7,5.7c10.1,6.7,12.7,15.4,14.1,20L968,304.6
		l-15.5,1.2c5,25.7,22.3,40.7,41.5,40.7c9.6,0,16.6-3.1,23.2-6.4C1017.2,340.1,1018.5,339.4,1017.5,340.4L1017.5,340.4z
		 M988.6,288.7c3.8-1.4,5.8-2.6,5.8-5.5c0-8.1-9-17.5-19.7-17.5c-7.9,0-22.9,6.3-22.9,28.4c0,3.4,0.4,7.1,0.6,10.8L988.6,288.7
		L988.6,288.7z M918.8,339.3c0,7.8,1.4,9.1,8,9.7c3.4,0.4,6.9,0.6,10.3,1l-7.4,4.4h-35.4c4.6-6.1,5.4-6.7,5.4-10.7v-4.5l-0.1-120.1
		H884l15-7.3h28.7c-6.2,3.6-8.1,5.8-8.9,12.9L918.8,339.3L918.8,339.3z M863.9,269.5c4.6,3.8,14.2,11.9,14.2,27.3
		c0,15-8.4,22-16.8,28.7c-2.6,2.6-5.6,5.5-5.6,9.9c0,4.5,3,6.9,5.2,8.7l7.2,5.6c8.8,7.5,16.8,14.4,16.8,28.3
		c0,19-18.2,38.2-52.7,38.2c-29,0-43.1-13.9-43.1-28.9c0-7.3,3.6-17.6,15.4-24.6c12.4-7.7,29.2-8.7,38.3-9.3c-2.8-3.7-6-7.5-6-13.8
		c0-3.4,1-5.5,2-7.9c-2.2,0.2-4.4,0.4-6.4,0.4c-21.2,0-33.3-16-33.3-31.7c0-9.3,4.2-19.6,12.8-27.1c11.4-9.5,25-11.1,35.9-11.1h41.3
		l-12.8,7.3L863.9,269.5L863.9,269.5z M849.8,359c-1.7-0.2-2.7-0.2-4.6-0.2c-1.8,0-12.7,0.4-21.2,3.3c-4.5,1.7-17.4,6.6-17.4,21.2
		c0,14.6,13.9,25.1,35.5,25.1c19.4,0,29.7-9.5,29.7-22.2C871.8,375.6,865.1,370.1,849.8,359L849.8,359z M855.5,320.1
		c4.6-4.6,5-11.1,5-14.7c0-14.5-8.6-37-25.1-37c-5.2,0-10.8,2.6-14,6.7c-3.4,4.2-4.4,9.6-4.4,14.9c0,13.5,7.8,35.8,24.9,35.8
		C846.9,325.7,852.3,323.2,855.5,320.1L855.5,320.1z M739.1,357c-31.9,0-49-25.2-49-48c0-26.6,21.5-49.4,52-49.4
		c29.5,0,48,23.4,48,48C790.1,331.6,771.8,357,739.1,357L739.1,357z M764,340.5c4.9-6.5,6.1-14.7,6.1-22.6c0-18-8.5-52.2-33.4-52.2
		c-6.6,0-13.3,2.6-18.2,6.9c-7.9,7.1-9.3,16.1-9.3,24.9c0,20.2,9.8,53.4,34.3,53.4C751.3,350.9,759.4,347.1,764,340.5L764,340.5z
		 M632.1,357c-31.9,0-49-25.2-49-48c0-26.6,21.5-49.4,52-49.4c29.5,0,48,23.4,48,48C683.1,331.6,664.9,357,632.1,357L632.1,357z
		 M657.1,340.5c4.8-6.5,6-14.7,6-22.6c0-18-8.5-52.2-33.4-52.2c-6.7,0-13.3,2.6-18.1,6.9c-7.9,7.1-9.3,16.1-9.3,24.9
		c0,20.2,9.9,53.4,34.3,53.4C644.4,350.9,652.4,347.1,657.1,340.5L657.1,340.5z M569.9,351l-27,6.2c-11,1.7-20.8,3.3-31.2,3.3
		c-52.1,0-72-38.6-72-68.9c0-36.9,28.1-71.1,76.3-71.1c10.2,0,20,1.5,28.9,4c14.2,4,20.8,8.9,24.9,11.8l-15.7,15l-6.6,1.5l4.7-7.6
		c-6.4-6.3-18.1-17.9-40.4-17.9c-29.8,0-52.3,22.8-52.3,56.1c0,35.8,25.7,69.4,66.9,69.4c12.1,0,18.3-2.4,24-4.7v-30.7l-28.5,1.5
		l15.1-8.2H577l-4.9,4.7c-1.3,1.1-1.5,1.5-1.9,3c-0.2,1.7-0.4,7.2-0.4,9.2L569.9,351L569.9,351z M1075.9,341.3v51.4h-10.2V262h10.2
		v14.9c6.6-9.6,18.7-17.2,32.8-17.2c25.2,0,42.2,19.2,42.2,49.6c0,30.2-17,49.8-42.2,49.8C1095.4,358.9,1083.5,352.1,1075.9,341.3
		L1075.9,341.3z M1140.5,310c0-23.1-11.9-40.8-33.1-40.8c-13.2,0-25.7,10.4-31.2,19.5V331c5.5,9.1,18.1,19.9,31.2,19.9
		C1128.5,350.9,1140.5,333.1,1140.5,310z M1164.8,225.7h10.4V357h-10.4V225.7z M1288.7,383.6c2.2,1,5.9,1.6,8.2,1.6
		c6.2,0,10.6-2.6,14.4-11.6l7.4-16.9l-40.1-95.4h11.3l34.4,82.7l34-82.7h11.5l-48.9,115.4c-5.1,11.9-13.1,17.6-24,17.6
		c-3.3,0-7.6-0.6-10.2-1.4L1288.7,383.6L1288.7,383.6z M1260,356.9c-0.7-3.3-1.2-6.2-1.6-8.6c-0.3-2.4-0.5-4.9-0.5-7.4
		c-3.5,5.2-8.5,9.5-14.8,12.8c-6.4,3.4-12.4,5.1-20.7,5.1c-10,0-17.7-2.5-23.2-7.4c-5.5-5-8.3-11.7-8.3-20.3c0-8.5,4-15.4,12-20.7
		c8-5.3,18.3-8,31.1-8h23.9v-11.8c0-6.8-2.3-12.2-6.9-16c-4.6-3.9-11.2-5.9-19.6-5.9c-7.7,0-14,1.8-18.7,5.3
		c-4.7,3.6-7.1,8-7.1,13.3H1195l-0.2-0.5c-0.4-7.2,2.9-13.5,9.9-18.9c6.9-5.4,16-8.2,27.2-8.2c11.2,0,20.2,2.7,27,8.1
		c6.8,5.3,10.2,13,10.2,23v46.9c0,3.4,0.2,6.6,0.6,9.8c0.4,3.2,1.1,6.4,2,9.4L1260,356.9L1260,356.9z M1223.6,350
		c8.7,0,14.9-2,21.3-5.8c6.3-3.8,10.7-8.9,12.9-14.9v-18.4h-24c-9.2,0-16.7,2-22.7,6.2c-6,4.1-9,9.1-9,14.9c0,5.5,1.9,9.8,5.7,13.1
		C1211.7,348.4,1217,350,1223.6,350L1223.6,350z M439.7,137.3c0-18.7,15-30.8,33.6-30.8c12.5,0,20.6,5.5,25.7,12.3l-9.1,4.9
		c-3.4-4.5-9.5-7.9-16.6-7.9c-12.6,0-22,8.9-22,21.5c0,12.4,9.4,21.5,22,21.5c6.5,0,12.3-2.8,15.1-5.3v-9.2h-19.2V135h30.3v22.2
		c-6.2,6.5-15.2,10.9-26.3,10.9C454.6,168.1,439.7,155.9,439.7,137.3L439.7,137.3z M514,167.2v-59.8h44.4v9.2h-33v15.4h32.4v9.2
		h-32.4V158h33v9.2L514,167.2L514,167.2z M588.6,167.2v-50.6h-19.3v-9.2h49.9v9.2h-19.3v50.6H588.6z M659,107.4h10.9v59.8H659V107.4
		z M701,167.2v-50.6h-19.3v-9.2h49.9v9.2h-19.3v50.6H701z M768.7,137.3c0-17.8,13.7-30.8,33.1-30.8c19.3,0,33.1,13,33.1,30.8
		c0,17.8-13.8,30.8-33.1,30.8C782.4,168.1,768.7,155.1,768.7,137.3z M823.1,136.9c0-12.2-8.4-21.3-21.3-21.3
		c-13,0-21.3,9.1-21.3,21.3c0,12.1,8.3,21.3,21.3,21.3C814.7,158.2,823.1,149,823.1,136.9z M892,167.2l-33.3-42.8v42.8h-11.2v-59.8
		H859l32.6,41.4v-41.4h11.2v59.8H892L892,167.2z"/>
</g>
</svg>
